# xmcd CD database file
#
# Track frame offsets:
#	150
#	10693
#	24531
#	42655
#	48350
#	61985
#	67793
#	75786
#	89539
#	98236
#	105785
#	118318
#	130455
#	141958
#
# Disc length: 2065 seconds
#
# Revision: 1
# Processed by: cddbd v1.5.1PL2 Copyright (c) Steve Scherf et al.
# Submitted via: CDex 1.51
#
DISCID=b1080f0e
DTITLE=Willie Nelson - Classics by Willie Nelson
DYEAR=2005
DGENRE=Country
TTITLE0=Blue Eyes Crying in the Rain
TTITLE1=Heartbreak Hotel (with Leon Russell)
TTITLE2=Crazy
TTITLE3=Three Days
TTITLE4=Undo the Right
TTITLE5=I've Just Destroyed the World
TTITLE6=Things to Remember
TTITLE7=A Moment Isn't Very Long
TTITLE8=Save Your Tears
TTITLE9=I Gotta Get Drunk
TTITLE10=Half a Man
TTITLE11=Within Your Crowd
TTITLE12=Just Out of Reach (with Patsy Cline)
TTITLE13=Just a Closer Walk with Thee (with Patsy Cline)
EXTD=YEAR: 2005
EXTT0=
EXTT1=
EXTT2=
EXTT3=
EXTT4=
EXTT5=
EXTT6=
EXTT7=
EXTT8=
EXTT9=
EXTT10=
EXTT11=
EXTT12=
EXTT13=
PLAYORDER=
